<?xml version="1.0" encoding="UTF-8"?>
<svg version="1.1" xmlns="http://www.w3.org/2000/svg" width="432" height="397">
<path d="M0 0 C1.06927734 -0.020625 2.13855469 -0.04125 3.24023438 -0.0625 C13.89657471 -0.11401101 23.57735003 1.97797569 33.0625 6.875 C33.74135254 7.22199951 34.42020508 7.56899902 35.11962891 7.92651367 C41.25287352 11.19305378 46.13437373 15.22556928 50.9375 20.25 C51.75476563 21.07113281 52.57203125 21.89226562 53.4140625 22.73828125 C60.30282349 29.93629003 65.62144947 37.87808062 70.9375 46.25 C71.70782151 47.4547545 72.4786438 48.65918896 73.25 49.86328125 C73.62294189 50.44553467 73.99588379 51.02778809 74.38012695 51.62768555 C74.74968506 52.20429932 75.11924316 52.78091309 75.5 53.375 C75.86891357 53.95096924 76.23782715 54.52693848 76.61791992 55.12036133 C87.89414043 72.66692259 100.00489246 89.20312321 116 102.75 C136.54591794 120.39129752 150.84675102 146.11135274 153.1953125 173.2265625 C153.81843927 189.96790168 148.50116992 205.35013385 137.9375 218.25 C137.17824219 219.22324219 136.41898437 220.19648438 135.63671875 221.19921875 C126.01687558 232.6876904 110.41898908 239.27525149 95.9375 241.25 C79.81548961 242.51549114 65.04040658 238.6424003 49.6875 234.3125 C23.61510231 227.00796323 -2.25945319 222.23864769 -29.0625 229.25 C-29.90135742 229.46462891 -30.74021484 229.67925781 -31.60449219 229.90039062 C-36.44638109 231.14295384 -41.28072965 232.41307741 -46.11328125 233.69140625 C-70.55232064 240.11978852 -94.90458104 246.43036096 -118.33984375 233.546875 C-123.54638771 230.47624709 -127.87007361 226.57904314 -132.0625 222.25 C-132.64386719 221.70988281 -133.22523438 221.16976562 -133.82421875 220.61328125 C-135.0625 219.25 -135.0625 219.25 -135.0625 217.25 C-135.7225 217.25 -136.3825 217.25 -137.0625 217.25 C-147.07656222 204.5048299 -151.43587683 186.21990753 -150.0625 170.25 C-146.13489262 138.63909547 -128.77562666 115.66581596 -105.82421875 94.72265625 C-91.80838817 81.89531311 -81.12977496 66.50898697 -70.375 50.9375 C-66.53127271 45.40976347 -62.41113764 40.09732163 -58.26611328 34.79443359 C-57.16838444 33.38586713 -56.08163738 31.96875979 -54.99609375 30.55078125 C-40.51723057 11.9183856 -23.85361186 0.1121863 0 0 Z " fill="#A44C33" transform="translate(210.0625,154.75)"/>
<path d="M0 0 C13.36296081 9.22334795 21.72378879 22.30100862 25.125 38.234375 C29.52072503 63.02997884 24.4640539 89.43855414 10.125 110.234375 C7.00243766 114.40589464 3.75439944 118.49217887 0.125 122.234375 C-0.535 122.234375 -1.195 122.234375 -1.875 122.234375 C-1.875 122.894375 -1.875 123.554375 -1.875 124.234375 C-13.71639162 134.63488932 -27.36210515 138.04032045 -42.67529297 137.41357422 C-47.52771354 137.01827159 -51.59815208 135.47462867 -55.875 133.234375 C-56.64972656 132.83347656 -57.42445313 132.43257812 -58.22265625 132.01953125 C-71.73148293 124.02545714 -78.03847073 110.11537136 -82.078125 95.62890625 C-87.62611459 71.99555846 -82.45136396 45.80531747 -69.875 25.234375 C-54.52142871 2.5122751 -27.05428592 -16.61486038 0 0 Z " fill="#A54F35" transform="translate(311.875,6.765625)"/>
<path d="M0 0 C9.52418861 7.5503628 16.52478536 19.18501737 20.75390625 30.4140625 C21.30498047 31.86232422 21.30498047 31.86232422 21.8671875 33.33984375 C28.99126488 53.31316615 30.14879551 78.32997272 20.92578125 97.80126953 C14.67246855 110.42164455 7.27982564 120.10772099 -6.140625 125.72265625 C-17.2930641 129.38496 -29.70190112 128.31338433 -40.24609375 123.4140625 C-43.47145219 121.6585534 -46.35460347 119.67353305 -49.24609375 117.4140625 C-49.98472656 116.85074219 -50.72335938 116.28742188 -51.484375 115.70703125 C-67.18923663 102.82307741 -76.15771285 82.1836504 -78.87109375 62.35546875 C-80.79331023 42.15217261 -77.70306193 21.32264713 -65.24609375 4.75390625 C-46.18067696 -17.81818542 -22.46260085 -15.86054947 0 0 Z " fill="#A54F36" transform="translate(169.24609375,14.5859375)"/>
<path d="M0 0 C11.12514832 0.3875564 19.76801764 4.4886383 27.875 11.875 C28.9578125 13.0815625 28.9578125 13.0815625 30.0625 14.3125 C31.0525 15.364375 31.0525 15.364375 32.0625 16.4375 C40.57407647 28.67289118 43.873368 43.82048906 41.40625 58.4375 C38.10405427 75.9150213 31.36380587 92.03437151 18.0625 104.3125 C17.61132812 104.82941406 17.16015625 105.34632813 16.6953125 105.87890625 C7.22582514 116.40841085 -6.92455842 122.47559232 -20.890625 123.30859375 C-32.43170941 123.32339001 -42.63420192 119.28491637 -51.05859375 111.37109375 C-61.96731771 99.41912384 -64.97731819 85.18188604 -64.375 69.47265625 C-62.94451164 48.36897938 -52.79527948 28.62814495 -36.9375 14.6875 C-25.76581005 5.95185911 -14.09512399 1.11866063 0 0 Z " fill="#A54F36" transform="translate(388.9375,107.6875)"/>
<path d="M0 0 C15.51734122 11.90924399 25.66166083 30.57433831 28.71875 49.80273438 C30.78859948 65.9734334 28.55257996 82.3838504 19 96 C11.21529037 105.5627911 2.51785987 110.35325917 -9.70703125 111.84375 C-23.56383259 112.50124947 -35.7045453 106.90010003 -46 98 C-46.96164063 97.24589844 -47.92328125 96.49179688 -48.9140625 95.71484375 C-63.00002086 83.9521596 -69.26983275 65.89903326 -72.6875 48.5 C-74.17853598 31.80039704 -71.31266172 15.8974049 -60.96484375 2.33203125 C-43.92806158 -16.12705942 -19.02370924 -14.17338948 0 0 Z " fill="#A54F36" transform="translate(73,119)"/>
<path d="M0 0 C0.66 0.33 1.32 0.66 2 1 C-2.71890538 6.40052505 -7.30358857 11.61814505 -13 16 C-13 11.93645091 -11.47015238 10.94829419 -8.75 8 C-7.96109375 7.13375 -7.1721875 6.2675 -6.359375 5.375 C-4.3351828 3.33740256 -2.34982916 1.63841299 0 0 Z " fill="#CC9C8E" transform="translate(261,11)"/>
<path d="M0 0 C0.66 0.33 1.32 0.66 2 1 C-7.22551253 11.74259681 -7.22551253 11.74259681 -13 15 C-11.43122312 11.14936584 -8.9838272 8.84819869 -6 6 C-4.89323224 4.89844056 -3.78905944 3.79426776 -2.6875 2.6875 C-1.800625 1.800625 -0.91375 0.91375 0 0 Z " fill="#D5AA9E" transform="translate(355,120)"/>
<path d="M0 0 C0.66 0.33 1.32 0.66 2 1 C0.73657512 2.48549956 -0.5360103 3.96321189 -1.8125 5.4375 C-2.52019531 6.26121094 -3.22789063 7.08492188 -3.95703125 7.93359375 C-6 10 -6 10 -9 11 C-7.59155282 7.78475695 -5.89655214 5.67816132 -3.375 3.25 C-2.74335938 2.63640625 -2.11171875 2.0228125 -1.4609375 1.390625 C-0.73777344 0.70226562 -0.73777344 0.70226562 0 0 Z " fill="#CEA093" transform="translate(19,115)"/>
</svg>
